<svg xmlns="http://www.w3.org/2000/svg" version="1.1" width="64" height="64" viewBox="0 0 64 64"><circle cx="32" cy="32" r="32" fill="#333"/><path fill="#fff" d="M19.132 8.572c-.425-.014-.851.134-1.396.679-.524.524-1.110 2.037-1.429 3.374-.022.092-.042.179-.061.266l10.711 9.875c-.673-2.675-1.646-5.624-2.798-8.133-1.094-2.383-2.367-4.374-3.517-5.346-.575-.486-1.084-.702-1.509-.716zM12.891 16.245c-.087.020-.174.039-.266.061-1.338.319-2.851.906-3.374 1.429-.545.545-.693.971-.679 1.396.014.425.230.934.716 1.509.972 1.150 2.963 2.423 5.346 3.517 2.509 1.152 5.457 2.125 8.133 2.798L12.891 16.245zM15.175 14.199L14.199 15.174 38.688 41.737c.006.005.414.396.992.589.582.194 1.192.270 2.053-.592.862-.862.786-1.471.592-2.053-.193-.579-.585-.988-.589-.993l-.210-.194L15.175 14.199zM43.208 42.149a4.334 4.334 0 0 1-.491.584 4.335 4.335 0 0 1-.584.491L52.429 52.429l-9.012-10.086z"/></svg>